<svg width="106" height="84" viewBox="0 0 106 84" fill="none" xmlns="http://www.w3.org/2000/svg">
<path d="M94.6429 15.1429H80.683C79.9732 15.1429 79.093 14.6838 78.4069 13.9598L72.2693 4.27312C72.1722 4.11939 72.0639 3.97308 71.9451 3.8354C69.8251 1.36286 66.9598 0 63.8839 0H42.1161C39.0402 0 36.1749 1.36286 34.0549 3.8354C33.9361 3.97308 33.8278 4.11939 33.7307 4.27312L27.5931 13.974C27.0679 14.5466 26.3296 15.1571 25.5536 15.1571V13.2642C25.5536 12.2602 25.1547 11.2973 24.4448 10.5873C23.7348 9.87733 22.7719 9.47848 21.7679 9.47848H16.0893C15.0853 9.47848 14.1223 9.87733 13.4124 10.5873C12.7024 11.2973 12.3036 12.2602 12.3036 13.2642V15.1571H11.3571C8.346 15.1602 5.45909 16.3577 3.32989 18.4869C1.20069 20.6161 0.00313171 23.5031 0 26.5142V71.9286C0.00313171 74.9397 1.20069 77.8266 3.32989 79.9558C5.45909 82.085 8.346 83.2826 11.3571 83.2857H94.6429C97.654 83.2826 100.541 82.085 102.67 79.9558C104.799 77.8266 105.997 74.9397 106 71.9286V26.5C105.997 23.4889 104.799 20.6019 102.67 18.4727C100.541 16.3435 97.654 15.146 94.6429 15.1429ZM53 68.1429C48.5075 68.1429 44.116 66.8107 40.3806 64.3148C36.6453 61.8189 33.7339 58.2715 32.0147 54.121C30.2955 49.9705 29.8457 45.4034 30.7222 40.9972C31.5986 36.5911 33.7619 32.5438 36.9386 29.3671C40.1152 26.1905 44.1625 24.0272 48.5687 23.1507C52.9748 22.2743 57.5419 22.7241 61.6924 24.4433C65.8429 26.1625 69.3904 29.0738 71.8862 32.8092C74.3821 36.5445 75.7143 40.9361 75.7143 45.4286C75.7074 51.4507 73.3121 57.2241 69.0538 61.4824C64.7956 65.7407 59.0221 68.136 53 68.1429Z" fill="#BDBDBD"/>
</svg>
