<svg width="30" height="33" viewBox="0 0 30 33" fill="none" xmlns="http://www.w3.org/2000/svg">
<path d="M28.125 0H24.375C23.8777 0 23.4008 0.19324 23.0492 0.53721C22.6975 0.881179 22.5 1.3477 22.5 1.83415V33H30V1.83415C30 1.3477 29.8025 0.881179 29.4508 0.53721C29.0992 0.19324 28.6223 0 28.125 0ZM16.875 11.0049H13.125C12.6277 11.0049 12.1508 11.1981 11.7992 11.5421C11.4475 11.8861 11.25 12.3526 11.25 12.839V33H18.75V12.839C18.75 12.3526 18.5525 11.8861 18.2008 11.5421C17.8492 11.1981 17.3723 11.0049 16.875 11.0049ZM5.625 22.0098H1.875C1.37772 22.0098 0.900805 22.203 0.549175 22.547C0.197544 22.891 0 23.3575 0 23.8439V33H7.5V23.8439C7.5 23.3575 7.30246 22.891 6.95082 22.547C6.59919 22.203 6.12228 22.0098 5.625 22.0098Z" fill="black"/>
</svg>
