<svg width="30" height="30" viewBox="0 0 30 30" fill="none" xmlns="http://www.w3.org/2000/svg">
<path d="M0.200988 17.4438C-0.0674983 15.8253 -0.0669918 14.1736 0.202488 12.5552C1.85351 12.5942 3.33959 11.8025 3.91692 10.4094C4.49425 9.01478 4.00389 7.40575 2.80724 6.26609C3.76158 4.93041 4.92997 3.76152 6.26524 2.8066C7.40492 4.00325 9.01545 4.49361 10.4086 3.91627C11.8032 3.33894 12.5949 1.85288 12.5544 0.201861C14.1734 -0.067287 15.8256 -0.067287 17.4445 0.201861C17.4055 1.85438 18.1973 3.33894 19.5904 3.91627C20.985 4.49361 22.594 4.00325 23.7337 2.8066C25.0694 3.76096 26.2383 4.92934 27.1932 6.26459C25.9966 7.40425 25.5062 9.01478 26.0835 10.4094C26.6609 11.804 28.1469 12.5957 29.798 12.5537C30.0673 14.1731 30.0673 15.8259 29.798 17.4453C28.1454 17.4048 26.6609 18.1966 26.0835 19.5897C25.5062 20.9843 25.9966 22.5948 27.1932 23.7345C26.2388 25.0697 25.0704 26.238 23.7352 27.1925C22.5955 25.9958 20.985 25.5055 19.5904 26.0828C18.1958 26.6601 17.404 28.1462 17.446 29.7987C15.8265 30.0676 14.1738 30.0671 12.5544 29.7972C12.5949 28.1462 11.8017 26.6601 10.4101 26.0828C9.01545 25.5055 7.40492 25.9958 6.26524 27.1925C4.93011 26.238 3.76173 25.0696 2.80724 23.7345C4.00389 22.5948 4.49425 20.9843 3.91692 19.5912C3.33959 18.1966 1.85351 17.4033 0.200988 17.4438ZM15.0002 19.4982C16.1934 19.4982 17.3376 19.0242 18.1813 18.1806C19.025 17.3369 19.4989 16.1927 19.4989 14.9995C19.4989 13.8064 19.025 12.6621 18.1813 11.8185C17.3376 10.9748 16.1934 10.5008 15.0002 10.5008C13.8071 10.5008 12.6628 10.9748 11.8192 11.8185C10.9755 12.6621 10.5015 13.8064 10.5015 14.9995C10.5015 16.1927 10.9755 17.3369 11.8192 18.1806C12.6628 19.0242 13.8071 19.4982 15.0002 19.4982Z" fill="black"/>
</svg>
