<svg width="23" height="23" viewBox="0 0 23 23" fill="none" xmlns="http://www.w3.org/2000/svg">
<path d="M11.5 0C8.46146 0.0368684 5.55777 1.26031 3.40904 3.40904C1.26031 5.55777 0.0368684 8.46146 0 11.5C0.0368684 14.5385 1.26031 17.4422 3.40904 19.591C5.55777 21.7397 8.46146 22.9631 11.5 23C14.5385 22.9631 17.4422 21.7397 19.591 19.591C21.7397 17.4422 22.9631 14.5385 23 11.5C22.9631 8.46146 21.7397 5.55777 19.591 3.40904C17.4422 1.26031 14.5385 0.0368684 11.5 0ZM18.0714 12.3214H12.3214V18.0714H10.6786V12.3214H4.92857V10.6786H10.6786V4.92857H12.3214V10.6786H18.0714V12.3214Z" fill="#BDBDBD"/>
</svg>
